<?xml version="1.0" encoding="UTF-8"?>
<svg width="700pt" height="700pt" version="1.1" viewBox="0 0 700 700" xmlns="http://www.w3.org/2000/svg" xmlns:xlink="http://www.w3.org/1999/xlink">
 <defs>
  <symbol id="u" overflow="visible">
   <path d="m7.4375-0.4375c-0.375 0.19922-0.77344 0.34375-1.1875 0.4375-0.41797 0.10156-0.85547 0.15625-1.3125 0.15625-1.3438 0-2.4141-0.375-3.2031-1.125-0.79297-0.75781-1.1875-1.7852-1.1875-3.0781 0-1.2891 0.39453-2.3125 1.1875-3.0625 0.78906-0.75781 1.8594-1.1406 3.2031-1.1406 0.45703 0 0.89453 0.054688 1.3125 0.15625 0.41406 0.10547 0.8125 0.25781 1.1875 0.45312v1.6719c-0.38672-0.25781-0.76562-0.45312-1.1406-0.57812s-0.77344-0.1875-1.1875-0.1875c-0.74219 0-1.3242 0.24219-1.75 0.71875-0.42969 0.48047-0.64062 1.1367-0.64062 1.9688 0 0.84375 0.21094 1.5078 0.64062 1.9844 0.42578 0.46875 1.0078 0.70312 1.75 0.70312 0.41406 0 0.8125-0.054687 1.1875-0.17188 0.375-0.125 0.75391-0.32031 1.1406-0.59375z"/>
  </symbol>
  <symbol id="c" overflow="visible">
   <path d="m5.4531-4.4219c-0.17969-0.082031-0.35156-0.14062-0.51562-0.17188-0.16797-0.039062-0.33594-0.0625-0.5-0.0625-0.5 0-0.88672 0.16406-1.1562 0.48438-0.27344 0.32422-0.40625 0.78125-0.40625 1.375v2.7969h-1.9375v-6.0781h1.9375v1c0.25-0.39453 0.53516-0.67969 0.85938-0.85938 0.32031-0.1875 0.70703-0.28125 1.1562-0.28125 0.070313 0 0.14453 0.007812 0.21875 0.015625 0.070313 0 0.17969 0.011719 0.32812 0.03125z"/>
  </symbol>
  <symbol id="b" overflow="visible">
   <path d="m7-3.0469v0.54688h-4.5469c0.050781 0.46094 0.21875 0.80469 0.5 1.0312 0.28125 0.21875 0.67578 0.32812 1.1875 0.32812 0.40625 0 0.82031-0.054687 1.25-0.17188 0.42578-0.125 0.86328-0.30469 1.3125-0.54688v1.4844c-0.46094 0.17969-0.91797 0.30859-1.375 0.39062-0.46094 0.09375-0.91797 0.14062-1.375 0.14062-1.0938 0-1.9492-0.27344-2.5625-0.82812-0.60547-0.5625-0.90625-1.3477-0.90625-2.3594 0-0.98828 0.29688-1.7656 0.89062-2.3281 0.59375-0.57031 1.4141-0.85938 2.4688-0.85938 0.95703 0 1.7227 0.28906 2.2969 0.85938 0.57031 0.57422 0.85938 1.3438 0.85938 2.3125zm-2-0.65625c0-0.36328-0.10938-0.66016-0.32812-0.89062-0.21094-0.22656-0.49219-0.34375-0.84375-0.34375-0.375 0-0.68359 0.10938-0.92188 0.32812-0.23047 0.21094-0.37109 0.51172-0.42188 0.90625z"/>
  </symbol>
  <symbol id="f" overflow="visible">
   <path d="m3.6562-2.7344c-0.40625 0-0.71484 0.070313-0.92188 0.20312-0.19922 0.13672-0.29688 0.33984-0.29688 0.60938 0 0.25 0.078125 0.44531 0.23438 0.57812 0.16406 0.13672 0.39844 0.20312 0.70312 0.20312 0.36328 0 0.67188-0.12891 0.92188-0.39062 0.25-0.25781 0.375-0.58594 0.375-0.98438v-0.21875zm2.9688-0.73438v3.4688h-1.9531v-0.90625c-0.26172 0.375-0.55859 0.64844-0.89062 0.8125-0.32422 0.16406-0.71875 0.25-1.1875 0.25-0.625 0-1.1367-0.17969-1.5312-0.54688-0.38672-0.36328-0.57812-0.84375-0.57812-1.4375 0-0.70703 0.24219-1.2266 0.73438-1.5625 0.48828-0.33203 1.2539-0.5 2.2969-0.5h1.1562v-0.15625c0-0.30078-0.125-0.52344-0.375-0.67188-0.24219-0.14453-0.61719-0.21875-1.125-0.21875-0.41797 0-0.80859 0.042969-1.1719 0.125-0.35547 0.085938-0.68359 0.21094-0.98438 0.375v-1.4688c0.40625-0.10156 0.81641-0.17969 1.2344-0.23438 0.42578-0.050781 0.84766-0.078125 1.2656-0.078125 1.1016 0 1.8945 0.21875 2.375 0.65625 0.48828 0.42969 0.73438 1.125 0.73438 2.0938z"/>
  </symbol>
  <symbol id="a" overflow="visible">
   <path d="m3.0469-7.7969v1.7188h2.0156v1.3906h-2.0156v2.5781c0 0.28125 0.054687 0.47656 0.17188 0.57812 0.11328 0.09375 0.33594 0.14062 0.67188 0.14062h1v1.3906h-1.6719c-0.76172 0-1.3047-0.15625-1.625-0.46875-0.32422-0.32031-0.48438-0.86719-0.48438-1.6406v-2.5781h-0.96875v-1.3906h0.96875v-1.7188z"/>
  </symbol>
  <symbol id="l" overflow="visible">
   <path d="m5.0625-5.1875v-3.25h1.9531v8.4375h-1.9531v-0.875c-0.26172 0.35547-0.55469 0.61719-0.875 0.78125-0.32422 0.16406-0.69922 0.25-1.125 0.25-0.75 0-1.3672-0.29688-1.8438-0.89062-0.48047-0.59375-0.71875-1.3594-0.71875-2.2969s0.23828-1.7031 0.71875-2.2969c0.47656-0.59375 1.0938-0.89062 1.8438-0.89062 0.41406 0 0.78516 0.085938 1.1094 0.25 0.33203 0.16797 0.62891 0.42969 0.89062 0.78125zm-1.2812 3.9375c0.41406 0 0.73438-0.14844 0.95312-0.45312 0.21875-0.3125 0.32812-0.75391 0.32812-1.3281 0-0.58203-0.10938-1.0234-0.32812-1.3281-0.21875-0.30078-0.53906-0.45312-0.95312-0.45312-0.40625 0-0.71875 0.15234-0.9375 0.45312-0.21875 0.30469-0.32812 0.74609-0.32812 1.3281 0 0.57422 0.10938 1.0156 0.32812 1.3281 0.21875 0.30469 0.53125 0.45312 0.9375 0.45312z"/>
  </symbol>
  <symbol id="k" overflow="visible">
   <path d="m4.1719-1.25c0.41406 0 0.73438-0.14844 0.95312-0.45312 0.21875-0.3125 0.32812-0.75391 0.32812-1.3281 0-0.58203-0.10938-1.0234-0.32812-1.3281-0.21875-0.30078-0.53906-0.45312-0.95312-0.45312-0.41797 0-0.74219 0.15625-0.96875 0.46875-0.21875 0.30469-0.32812 0.74219-0.32812 1.3125 0 0.57422 0.10938 1.0156 0.32812 1.3281 0.22656 0.30469 0.55078 0.45312 0.96875 0.45312zm-1.2969-3.9375c0.26953-0.35156 0.56641-0.61328 0.89062-0.78125 0.32031-0.16406 0.69531-0.25 1.125-0.25 0.75 0 1.3633 0.29688 1.8438 0.89062 0.47656 0.59375 0.71875 1.3594 0.71875 2.2969s-0.24219 1.7031-0.71875 2.2969c-0.48047 0.59375-1.0938 0.89062-1.8438 0.89062-0.42969 0-0.80469-0.085938-1.125-0.25-0.32422-0.16406-0.62109-0.42578-0.89062-0.78125v0.875h-1.9375v-8.4375h1.9375z"/>
  </symbol>
  <symbol id="e" overflow="visible">
   <path d="m0.14062-6.0781h1.9375l1.625 4.125 1.3906-4.125h1.9531l-2.5625 6.6562c-0.26172 0.67578-0.5625 1.1445-0.90625 1.4062-0.33594 0.26953-0.78125 0.40625-1.3438 0.40625h-1.125v-1.2656h0.60938c0.33203 0 0.57031-0.054688 0.71875-0.15625 0.14453-0.10547 0.25781-0.29297 0.34375-0.5625l0.0625-0.17188z"/>
  </symbol>
  <symbol id="j" overflow="visible">
   <path d="m0.32812-8.0938h2l1.4062 5.875 1.3906-5.875h2.0156l1.375 5.875 1.4062-5.875h1.9844l-1.9062 8.0938h-2.4062l-1.4688-6.1562-1.4531 6.1562h-2.4219z"/>
  </symbol>
  <symbol id="i" overflow="visible">
   <path d="m7.0469-3.7031v3.7031h-1.9531v-2.8281c0-0.53125-0.015625-0.89453-0.046875-1.0938-0.023437-0.19531-0.058594-0.34375-0.10938-0.4375-0.085938-0.125-0.19531-0.21875-0.32812-0.28125-0.125-0.070313-0.27344-0.10938-0.4375-0.10938-0.40625 0-0.72656 0.15625-0.95312 0.46875-0.23047 0.3125-0.34375 0.74609-0.34375 1.2969v2.9844h-1.9375v-8.4375h1.9375v3.25c0.28906-0.35156 0.59766-0.61328 0.92188-0.78125 0.33203-0.16406 0.69531-0.25 1.0938-0.25 0.70703 0 1.2422 0.21484 1.6094 0.64062 0.36328 0.42969 0.54688 1.0547 0.54688 1.875z"/>
  </symbol>
  <symbol id="h" overflow="visible">
   <path d="m0.875-2.3594v-3.7188h1.9531v0.60938c0 0.33594-0.007813 0.75-0.015625 1.25v0.98438c0 0.49219 0.007812 0.84375 0.03125 1.0625 0.03125 0.21094 0.078125 0.36719 0.14062 0.46875 0.070313 0.125 0.17188 0.22656 0.29688 0.29688 0.13281 0.0625 0.28516 0.09375 0.45312 0.09375 0.40625 0 0.72266-0.15625 0.95312-0.46875 0.22656-0.3125 0.34375-0.74219 0.34375-1.2969v-3h1.9375v6.0781h-1.9375v-0.875c-0.29297 0.35547-0.60547 0.61719-0.9375 0.78125-0.32422 0.16406-0.68359 0.25-1.0781 0.25-0.69922 0-1.2305-0.21094-1.5938-0.64062-0.36719-0.4375-0.54688-1.0625-0.54688-1.875z"/>
  </symbol>
  <symbol id="g" overflow="visible">
   <path d="m7.0469-3.7031v3.7031h-1.9531v-2.8281c0-0.53125-0.015625-0.89453-0.046875-1.0938-0.023437-0.19531-0.058594-0.34375-0.10938-0.4375-0.085938-0.125-0.19531-0.21875-0.32812-0.28125-0.125-0.070313-0.27344-0.10938-0.4375-0.10938-0.40625 0-0.72656 0.15625-0.95312 0.46875-0.23047 0.3125-0.34375 0.74609-0.34375 1.2969v2.9844h-1.9375v-6.0781h1.9375v0.89062c0.28906-0.35156 0.59766-0.61328 0.92188-0.78125 0.33203-0.16406 0.69531-0.25 1.0938-0.25 0.70703 0 1.2422 0.21484 1.6094 0.64062 0.36328 0.42969 0.54688 1.0547 0.54688 1.875z"/>
  </symbol>
  <symbol id="t" overflow="visible">
   <path d="m0.9375-6.0781h1.9375v6.0781h-1.9375zm0-2.3594h1.9375v1.5781h-1.9375z"/>
  </symbol>
  <symbol id="s" overflow="visible">
   <path d="m0.9375-8.4375h1.9375v8.4375h-1.9375z"/>
  </symbol>
  <symbol id="r" overflow="visible">
   <path d="m4.9375-8.4375v1.2656h-1.0781c-0.28125 0-0.47656 0.054687-0.57812 0.15625-0.10547 0.09375-0.15625 0.26562-0.15625 0.51562v0.42188h1.6562v1.3906h-1.6562v4.6875h-1.9531v-4.6875h-0.95312v-1.3906h0.95312v-0.42188c0-0.65625 0.17969-1.1406 0.54688-1.4531 0.375-0.32031 0.94531-0.48438 1.7188-0.48438z"/>
  </symbol>
  <symbol id="d" overflow="visible">
   <path d="m3.8281-4.8281c-0.4375 0-0.77344 0.15625-1 0.46875-0.21875 0.30469-0.32812 0.74609-0.32812 1.3281 0 0.58594 0.10938 1.0312 0.32812 1.3438 0.22656 0.30469 0.5625 0.45312 1 0.45312 0.41406 0 0.73438-0.14844 0.95312-0.45312 0.22656-0.3125 0.34375-0.75781 0.34375-1.3438 0-0.58203-0.11719-1.0234-0.34375-1.3281-0.21875-0.3125-0.53906-0.46875-0.95312-0.46875zm0-1.3906c1.0391 0 1.8516 0.28125 2.4375 0.84375 0.59375 0.5625 0.89062 1.3438 0.89062 2.3438s-0.29688 1.7812-0.89062 2.3438c-0.58594 0.5625-1.3984 0.84375-2.4375 0.84375-1.0547 0-1.875-0.28125-2.4688-0.84375-0.58594-0.5625-0.875-1.3438-0.875-2.3438s0.28906-1.7812 0.875-2.3438c0.59375-0.5625 1.4141-0.84375 2.4688-0.84375z"/>
  </symbol>
  <symbol id="q" overflow="visible">
   <path d="m6.5625-5.0625c0.25-0.375 0.53906-0.66016 0.875-0.85938 0.34375-0.19531 0.71094-0.29688 1.1094-0.29688 0.69531 0 1.2266 0.21484 1.5938 0.64062 0.375 0.42969 0.5625 1.0547 0.5625 1.875v3.7031h-1.9531v-3.1719-0.14062-0.21875c0-0.42578-0.0625-0.73438-0.1875-0.92188-0.125-0.19531-0.32812-0.29688-0.60938-0.29688-0.36719 0-0.65234 0.15234-0.85938 0.45312-0.19922 0.30469-0.30469 0.74219-0.3125 1.3125v2.9844h-1.9531v-3.1719c0-0.66406-0.058594-1.0938-0.17188-1.2812-0.11719-0.19531-0.32031-0.29688-0.60938-0.29688-0.375 0-0.66797 0.15234-0.875 0.45312-0.19922 0.30469-0.29688 0.74219-0.29688 1.3125v2.9844h-1.9531v-6.0781h1.9531v0.89062c0.23828-0.34375 0.50781-0.59766 0.8125-0.76562 0.3125-0.17578 0.65625-0.26562 1.0312-0.26562 0.41406 0 0.78516 0.10547 1.1094 0.3125 0.32031 0.19922 0.56641 0.48047 0.73438 0.84375z"/>
  </symbol>
  <symbol id="p" overflow="visible">
   <path d="m1.0156-8.0938h2.3438l2.9375 5.5469v-5.5469h1.9844v8.0938h-2.3438l-2.9375-5.5625v5.5625h-1.9844z"/>
  </symbol>
  <symbol id="o" overflow="visible">
   <path d="m1.0156-8.0938h3.4688c1.0312 0 1.8203 0.23047 2.375 0.6875 0.55078 0.46094 0.82812 1.1094 0.82812 1.9531s-0.27734 1.4961-0.82812 1.9531c-0.55469 0.46094-1.3438 0.6875-2.375 0.6875h-1.375v2.8125h-2.0938zm2.0938 1.5156v2.25h1.1562c0.40625 0 0.71875-0.097656 0.9375-0.29688 0.21875-0.19531 0.32812-0.47266 0.32812-0.82812 0-0.36328-0.10938-0.64062-0.32812-0.82812-0.21875-0.19531-0.53125-0.29688-0.9375-0.29688z"/>
  </symbol>
  <symbol id="n" overflow="visible">
   <path d="m0.9375-6.0781h1.9375v5.9688c0 0.8125-0.19922 1.4297-0.59375 1.8594-0.38672 0.42578-0.94922 0.64062-1.6875 0.64062h-0.96875v-1.2656h0.34375c0.36328 0 0.61328-0.085938 0.75-0.25 0.14453-0.16797 0.21875-0.49609 0.21875-0.98438zm0-2.3594h1.9375v1.5781h-1.9375z"/>
  </symbol>
  <symbol id="m" overflow="visible">
   <path d="m5.8438-5.8906v1.5938c-0.26172-0.1875-0.52734-0.32031-0.79688-0.40625-0.26172-0.082031-0.53906-0.125-0.82812-0.125-0.54297 0-0.96484 0.15625-1.2656 0.46875-0.30469 0.3125-0.45312 0.75781-0.45312 1.3281 0 0.5625 0.14844 1.0078 0.45312 1.3281 0.30078 0.3125 0.72266 0.46875 1.2656 0.46875 0.30078 0 0.58594-0.039063 0.85938-0.125 0.28125-0.09375 0.53516-0.22656 0.76562-0.40625v1.5938c-0.30469 0.10547-0.60938 0.17969-0.92188 0.23438-0.3125 0.0625-0.63281 0.09375-0.95312 0.09375-1.0938 0-1.9492-0.28125-2.5625-0.84375-0.61719-0.5625-0.92188-1.3438-0.92188-2.3438s0.30469-1.7812 0.92188-2.3438c0.61328-0.5625 1.4688-0.84375 2.5625-0.84375 0.32031 0 0.63281 0.03125 0.9375 0.09375 0.3125 0.054688 0.625 0.13281 0.9375 0.23438z"/>
  </symbol>
 </defs>
 <g>
  <path fill="#ffff00" d="m157.78 206.67c22.223 64.445 62.223 111.11 113.33 140 57.777 35.555 131.11 46.668 208.89 37.777 188.89-24.445 120 111.11-31.109 160-191.11 60-424.45-57.777-446.67-264.45-8.8906-71.109 13.332-133.33 44.445-157.78l8.8906-57.777-24.445-2.2227c-40-6.668-31.109-68.891 11.109-62.223l117.78 20c40 6.668 31.109 66.668-8.8906 60l-33.332-4.4453-8.8906 48.891c17.777 13.332 33.332 40 48.891 82.223zm-28.891 115.55c-8.8906-15.555 13.332-26.668 20-11.109 60 111.11 206.67 153.33 322.22 124.45 17.777-4.4453 22.223 20 6.668 24.445-126.67 33.332-286.67-15.555-348.89-137.78z" fill-rule="evenodd"/>
  <path fill="#ffff00" d="m191.11 200c97.777 57.777 211.11 37.777 304.45-20 91.109-55.555 128.89-31.109 124.45 17.777-35.555 15.555-62.223 37.777-93.332 55.555-57.777 31.109-117.78 44.445-173.33 37.777-77.777-11.109-115.55-48.891-162.22-91.109z" fill-rule="evenodd"/>
  <path fill="#ffff00" d="m208.89 242.22c48.891 46.668 106.67 68.891 164.45 71.109 68.891 2.2227 137.78-22.223 202.22-66.668 173.33-122.22 144.45 64.445 37.777 164.45-11.109-55.555-93.332-51.109-135.55-46.668-66.668 8.8906-137.78 0-197.78-33.332-44.445-26.668-75.555-64.445-95.555-108.89 8.8906 4.4453 15.555 11.109 24.445 20zm348.89 95.555c-13.332 4.4453-20-17.777-6.668-20 44.445-13.332 66.668-35.555 95.555-71.109 8.8906-11.109 24.445 2.2227 15.555 13.332-28.891 40-55.555 62.223-104.45 77.777z" fill-rule="evenodd"/>
 </g>
</svg>
